<mxfile host="app.diagrams.net" modified="2023-11-23T01:28:16.120Z" agent="Mozilla/5.0 (Windows NT 10.0; Win64; x64) AppleWebKit/537.36 (KHTML, like Gecko) Chrome/119.0.0.0 Safari/537.36" version="22.1.3" etag="U4vJzhL6cO0nuDMd9LCP" type="github">
  <diagram name="페이지-1" id="oHau0nmBYUfgmYJa-h6x">
    <mxGraphModel>
      <root>
        <mxCell id="0" />
        <mxCell id="1" parent="0" />
      </root>
    </mxGraphModel>
  </diagram>
</mxfile>
